<?xml version="1.0" encoding="UTF-8"?>
<!DOCTYPE svg PUBLIC "-//W3C//DTD SVG 1.1//EN" "http://www.w3.org/Graphics/SVG/1.1/DTD/svg11.dtd">
<!-- Creator: CorelDRAW 2018 (64 Bit) -->
<svg xmlns="http://www.w3.org/2000/svg" xml:space="preserve" width="279.4mm" height="215.9mm" version="1.1" style="shape-rendering:geometricPrecision; text-rendering:geometricPrecision; image-rendering:optimizeQuality; fill-rule:evenodd; clip-rule:evenodd"
viewBox="0 0 27940 21590"
 xmlns:xlink="http://www.w3.org/1999/xlink">
 <defs>
  <style type="text/css">
   <![CDATA[
    .fil5 {fill:#4B4B4D}
    .fil0 {fill:#F58634}
    .fil1 {fill:#21C621}
    .fil3 {fill:#FEFEFE;fill-rule:nonzero}
    .fil2 {fill:#4B4B4D;fill-rule:nonzero}
    .fil4 {fill:#373435;fill-rule:nonzero}
   ]]>
  </style>
 </defs>
 <g id="Capa_x0020_1">
  <metadata id="CorelCorpID_0Corel-Layer"/>
  <rect class="fil0" transform="matrix(0.44009 -0.44009 0.508714 0.508714 6190.35 9210.31)" width="7217.83" height="6244.17"/>
  <path class="fil1" d="M9265.4 5100.68c3773.92,0 6833.3,2261.02 6833.3,5050.13 0,2789.11 -4595.24,5362.51 -11519,4946 4712.38,-520.64 9462.51,-2859.75 9618.7,-5232.34 156.19,-2372.6 -2329.18,-4060.94 -4933,-4763.79z"/>
  <path class="fil2" d="M10724.4 10543.3l0 -1462.03c0,-288.37 101.21,-488.79 303.65,-601.25 202.43,-112.47 560.59,-168.7 1074.45,-168.7l2273.49 0 0 666.13 -2226.77 0c-124.57,11.54 -197.24,54.79 -218,129.77l0 1513.94c31.14,74.98 116.78,118.23 256.93,129.77l957.67 0c233.58,0 360.75,-46.14 381.51,-138.42l0 -977.57 1206.82 0 0 994.87c0,201.86 -36.34,343.16 -109.01,423.9 -207.62,248 -583.94,372 -1128.95,372l-1385.9 0c-498.3,0 -864.24,-69.21 -1097.81,-207.63 -134.96,-80.74 -220.6,-173.02 -256.93,-276.83 -20.76,-69.21 -31.15,-201.86 -31.15,-397.95z"/>
  <path id="1" class="fil2" d="M15466.02 10776.88l0 -1790.77c0,-40.38 7.79,-86.52 23.36,-138.42 103.81,-357.58 485.32,-536.37 1144.52,-536.37l2491.5 0 0 666.13 -2172.27 0c-15.58,5.77 -41.52,11.54 -77.86,17.31 -134.96,28.83 -202.43,89.39 -202.43,181.67l0 346.04 2452.56 0 0 674.79 -2452.56 0 0 346.04c0,126.88 103.81,196.09 311.43,207.63l2141.13 0 0 674.78 -2320.2 0c-892.78,0 -1339.18,-216.28 -1339.18,-648.83z"/>
  <path id="2" class="fil2" d="M19748.27 8925.55c0,-51.91 10.38,-103.82 31.15,-155.72 140.14,-305.67 511.27,-458.51 1113.38,-458.51l2452.56 0 0 666.13 -2125.55 8.66c-176.48,5.76 -264.73,54.79 -264.73,147.06l0 207.63c0,23.07 2.6,37.49 7.79,43.26 25.96,80.74 127.17,126.88 303.65,138.41 15.58,0 41.52,0 77.86,0l872.03 0c259.52,0 487.91,37.49 685.15,112.47 295.87,103.81 443.8,271.06 443.8,501.76l0 631.53c0,248 -153.13,429.67 -459.37,545.02 -207.63,74.97 -456.77,112.46 -747.45,112.46l-2382.49 0 0 -674.78 2102.2 0c186.86,-34.61 280.29,-95.17 280.29,-181.68l0 -224.92c0,-86.52 -85.64,-135.54 -256.93,-147.07l-1004.38 0c-404.87,0 -718.9,-92.28 -942.1,-276.84 -124.57,-103.81 -186.86,-216.27 -186.86,-337.39l0 -657.48z"/>
  <polygon id="3" class="fil2" points="23742.44,8977.45 23742.44,8311.32 27355.1,8311.32 27355.1,8977.45 26148.29,8977.45 26148.29,11425.71 24941.48,11425.71 24941.48,8977.45 "/>
  <path class="fil2" d="M5333.65 12159.13c-957.93,-218.83 -1696.97,-376.6 -2215.09,-474.99 -520.14,-96.7 -873.6,-145.89 -1062.37,-145.89 -184.76,0 -315.3,25.44 -391.61,74.64 -76.31,49.2 -114.48,132.32 -114.48,249.37 0,225.62 176.74,412.23 532.19,561.51 355.47,149.29 817.36,223.93 1385.7,223.93 391.61,0 743.05,-40.71 1050.31,-122.14 307.27,-81.43 578.39,-203.57 815.35,-366.43zm1219.02 205.27c-389.6,354.55 -843.47,622.58 -1365.61,804.1 -522.15,181.51 -1094.5,273.12 -1719.07,273.12 -913.75,0 -1640.74,-145.89 -2180.96,-437.68 -540.23,-290.08 -809.34,-675.17 -809.34,-1151.86 0,-357.94 128.53,-625.97 387.6,-805.79 259.07,-181.51 648.67,-271.42 1166.8,-271.42 427.76,0 1337.5,159.46 2729.22,480.08 492.02,113.66 873.59,200.17 1148.71,262.94 132.56,-150.98 239,-322.32 317.32,-510.62 78.32,-188.3 118.48,-368.12 118.48,-536.06 0,-268.03 -80.33,-497.05 -241,-683.65 -160.65,-186.61 -538.2,-424.1 -1130.64,-712.49 -690.84,-330.8 -1160.78,-637.85 -1405.78,-917.76 -245.01,-279.91 -367.51,-622.58 -367.51,-1026.33 0,-705.7 321.33,-1284.18 961.96,-1735.42 642.64,-451.24 1466.03,-676.87 2470.15,-676.87 642.64,0 1170.82,115.36 1580.49,346.07 409.69,230.71 614.53,522.49 614.53,873.65 0,193.39 -64.26,344.37 -192.79,456.33 -130.54,110.27 -305.26,166.25 -528.17,166.25l-82.34 0c-44.18,-325.71 -194.8,-568.29 -451.85,-727.76 -257.06,-159.46 -624.57,-239.19 -1102.54,-239.19 -582.4,0 -1052.33,118.75 -1413.81,357.94 -361.48,239.19 -542.23,547.94 -542.23,926.24 0,434.28 403.66,838.02 1212.99,1212.93 106.43,49.2 182.74,86.52 230.95,110.27 604.49,286.69 1044.29,600.52 1321.42,938.11 277.15,337.58 415.72,726.06 415.72,1165.43 0,262.94 -46.19,508.92 -138.57,739.63 -92.39,232.41 -234.97,454.64 -427.76,666.69 114.47,25.45 234.96,49.2 363.49,71.25 126.53,20.36 267.1,40.72 419.73,61.07l-228.94 671.78c-247.02,-16.96 -459.9,-37.32 -638.63,-62.77 -178.74,-25.44 -343.41,-54.28 -492.02,-88.21z"/>
  <path class="fil3" d="M9668.96 11476.98l-665.46 0 0 -3160.93 665.46 0 0 3160.93zm-623.87 -3790.74c-83.18,-83.18 -124.77,-182.21 -124.77,-297.08 0,-114.87 41.59,-213.9 124.77,-297.08 83.18,-83.18 182.21,-124.77 297.08,-124.77 114.87,0 213.9,41.59 297.08,124.77 83.18,83.18 124.77,182.21 124.77,297.08 0,114.87 -41.59,213.9 -124.77,297.08 -83.18,83.18 -182.21,124.77 -297.08,124.77 -114.87,0 -213.9,-41.59 -297.08,-124.77z"/>
  <path class="fil4" d="M15480.28 12478.66l97.45 -14.2c5.87,47.83 17.62,82.81 35.48,105.28 17.85,22.48 41.92,33.63 72.22,33.63 32.02,0 56.21,-9.97 72.45,-29.91 16.25,-19.94 24.42,-43.26 24.42,-69.96 0,-17.24 -3.45,-31.77 -10.25,-43.94 -6.8,-12 -18.78,-22.47 -35.82,-31.26 -11.64,-6.08 -38.13,-16.56 -79.6,-31.77 -53.33,-19.6 -90.76,-43.6 -112.3,-72.16 -30.3,-40.05 -45.39,-88.89 -45.39,-146.51 0,-37.01 7.14,-71.82 21.31,-104.1 14.28,-32.27 34.79,-56.78 61.63,-73.68 26.83,-16.9 59.09,-25.34 97.1,-25.34 61.85,0 108.51,20.1 139.72,60.49 31.33,40.39 47.69,94.13 49.3,161.56l-100.21 5.07c-4.26,-37.52 -13.36,-64.39 -27.3,-80.78 -13.94,-16.39 -34.9,-24.67 -62.78,-24.67 -28.79,0 -51.38,8.78 -67.61,26.36 -10.49,11.32 -15.78,26.36 -15.78,45.29 0,17.23 4.95,31.94 14.86,44.1 12.55,15.72 43.08,31.94 91.57,48.84 48.5,16.73 84.32,34.31 107.47,52.22 23.27,18.08 41.46,42.58 54.6,73.85 13.13,31.26 19.69,69.79 19.69,115.58 0,41.58 -7.83,80.61 -23.61,116.94 -15.78,36.34 -38.01,63.38 -66.81,80.95 -28.8,17.74 -64.73,26.53 -107.7,26.53 -62.55,0 -110.58,-21.12 -144.1,-63.54 -33.52,-42.25 -53.44,-103.93 -60.01,-184.87z"/>
  <polygon id="1" class="fil4" points="15964.07,12713.89 15964.07,11987.92 16064.28,11987.92 16064.28,12713.89 "/>
  <path id="2" class="fil4" d="M16133.28 12478.66l97.44 -14.2c5.88,47.83 17.63,82.81 35.48,105.28 17.85,22.48 41.93,33.63 72.23,33.63 32.01,0 56.21,-9.97 72.45,-29.91 16.24,-19.94 24.41,-43.26 24.41,-69.96 0,-17.24 -3.44,-31.77 -10.24,-43.94 -6.8,-12 -18.78,-22.47 -35.83,-31.26 -11.63,-6.08 -38.13,-16.56 -79.59,-31.77 -53.33,-19.6 -90.77,-43.6 -112.31,-72.16 -30.3,-40.05 -45.39,-88.89 -45.39,-146.51 0,-37.01 7.15,-71.82 21.32,-104.1 14.28,-32.27 34.78,-56.78 61.62,-73.68 26.84,-16.9 59.1,-25.34 97.1,-25.34 61.86,0 108.51,20.1 139.73,60.49 31.33,40.39 47.69,94.13 49.3,161.56l-100.22 5.07c-4.26,-37.52 -13.36,-64.39 -27.3,-80.78 -13.94,-16.39 -34.9,-24.67 -62.78,-24.67 -28.79,0 -51.37,8.78 -67.61,26.36 -10.48,11.32 -15.78,26.36 -15.78,45.29 0,17.23 4.95,31.94 14.86,44.1 12.56,15.72 43.08,31.94 91.57,48.84 48.5,16.73 84.32,34.31 107.48,52.22 23.26,18.08 41.46,42.58 54.6,73.85 13.12,31.26 19.69,69.79 19.69,115.58 0,41.58 -7.83,80.61 -23.61,116.94 -15.78,36.34 -38.01,63.38 -66.81,80.95 -28.8,17.74 -64.74,26.53 -107.71,26.53 -62.54,0 -110.57,-21.12 -144.09,-63.54 -33.52,-42.25 -53.45,-103.93 -60.01,-184.87z"/>
  <polygon id="3" class="fil4" points="16731.79,12713.89 16731.79,12110.6 16585.27,12110.6 16585.27,11987.92 16977.83,11987.92 16977.83,12110.6 16832,12110.6 16832,12713.89 "/>
  <polygon id="4" class="fil4" points="17042.68,12713.89 17042.68,11987.92 17408.98,11987.92 17408.98,12110.6 17142.9,12110.6 17142.9,12271.82 17390.31,12271.82 17390.31,12394.5 17142.9,12394.5 17142.9,12591.2 17418.65,12591.2 17418.65,12713.89 "/>
  <polygon id="5" class="fil4" points="17502.28,12713.89 17502.28,11987.92 17652.37,11987.92 17741.06,12483.05 17828.72,11987.92 17979.16,11987.92 17979.16,12713.89 17886.54,12713.89 17886.2,12142.37 17788.63,12713.89 17692.34,12713.89 17595.23,12142.37 17594.89,12713.89 "/>
  <path id="6" class="fil4" d="M18525.14 12713.89l-107.93 0 -42.73 -165.27 -198.47 0 -41.12 165.27 -105.98 0 192.14 -725.97 105.85 0 198.24 725.97zm-183.15 -287.96l-68.77 -268.69 -66.8 268.69 135.57 0z"/>
  <path id="7" class="fil4" d="M18744.8 11987.92l182.23 0c41.12,0 72.45,4.56 93.99,13.85 28.92,12.51 53.8,34.81 74.42,66.92 20.73,31.94 36.39,71.15 47.22,117.62 10.71,46.3 16.13,103.59 16.13,171.52 0,59.82 -5.07,111.2 -15.21,154.46 -12.32,52.89 -29.95,95.64 -52.87,128.26 -17.28,24.84 -40.66,44.11 -70.04,57.96 -21.99,10.31 -51.36,15.38 -88.23,15.38l-187.64 0 0 -725.97zm100.22 122.68l0 480.6 74.29 0c27.76,0 47.8,-2.36 60.13,-6.92 16.24,-5.92 29.61,-16.06 40.2,-30.25 10.71,-14.2 19.35,-37.52 26.03,-69.96 6.8,-32.45 10.14,-76.89 10.14,-133 0,-56.1 -3.34,-99.03 -10.14,-129.11 -6.68,-30.07 -16.12,-53.4 -28.22,-70.29 -12.09,-16.73 -27.42,-28.23 -46.07,-34.14 -13.83,-4.56 -41.12,-6.93 -81.67,-6.93l-44.69 0z"/>
  <polygon id="8" class="fil4" points="19243.92,12713.89 19243.92,11987.92 19610.21,11987.92 19610.21,12110.6 19344.13,12110.6 19344.13,12271.82 19591.55,12271.82 19591.55,12394.5 19344.13,12394.5 19344.13,12591.2 19619.88,12591.2 19619.88,12713.89 "/>
  <path id="9" class="fil4" d="M20127.06 12447.23l0 -122.69 214.94 0 0 289.65c-20.86,29.91 -51.15,56.1 -90.89,78.91 -39.63,22.65 -79.82,33.97 -120.6,33.97 -51.72,0 -96.75,-15.88 -135.23,-47.82 -38.36,-31.94 -67.27,-77.74 -86.62,-137.05 -19.36,-59.32 -29.03,-124.04 -29.03,-193.83 0,-75.71 10.83,-142.97 32.37,-201.94 21.65,-58.81 53.22,-104.1 94.8,-135.53 31.79,-24.17 71.19,-36.16 118.41,-36.16 61.39,0 109.43,18.92 143.99,56.78 34.43,38.02 56.67,90.23 66.57,157.15l-99.52 27.38c-6.91,-35.66 -20.04,-63.88 -39.28,-84.66 -19.12,-20.62 -43.08,-30.93 -71.88,-30.93 -43.53,0 -78.21,20.28 -103.89,61.01 -25.69,40.72 -38.59,101.05 -38.59,180.98 0,86.36 13.01,151.08 39.05,194.17 26.14,43.09 60.24,64.72 102.51,64.72 20.85,0 41.81,-6.08 62.78,-18.08 21.08,-12 39.05,-26.7 54.14,-43.93l0 -92.1 -114.03 0z"/>
  <polygon id="10" class="fil4" points="20434.49,12713.89 20434.49,11987.92 20800.79,11987.92 20800.79,12110.6 20534.71,12110.6 20534.71,12271.82 20782.12,12271.82 20782.12,12394.5 20534.71,12394.5 20534.71,12591.2 20810.46,12591.2 20810.46,12713.89 "/>
  <path id="11" class="fil4" d="M20869.21 12478.66l97.45 -14.2c5.87,47.83 17.62,82.81 35.48,105.28 17.85,22.48 41.92,33.63 72.22,33.63 32.02,0 56.21,-9.97 72.45,-29.91 16.24,-19.94 24.42,-43.26 24.42,-69.96 0,-17.24 -3.45,-31.77 -10.25,-43.94 -6.8,-12 -18.78,-22.47 -35.82,-31.26 -11.64,-6.08 -38.13,-16.56 -79.6,-31.77 -53.33,-19.6 -90.76,-43.6 -112.3,-72.16 -30.3,-40.05 -45.39,-88.89 -45.39,-146.51 0,-37.01 7.14,-71.82 21.31,-104.1 14.28,-32.27 34.78,-56.78 61.63,-73.68 26.83,-16.9 59.09,-25.34 97.1,-25.34 61.85,0 108.5,20.1 139.72,60.49 31.33,40.39 47.69,94.13 49.3,161.56l-100.21 5.07c-4.26,-37.52 -13.36,-64.39 -27.3,-80.78 -13.94,-16.39 -34.9,-24.67 -62.78,-24.67 -28.79,0 -51.38,8.78 -67.61,26.36 -10.49,11.32 -15.78,26.36 -15.78,45.29 0,17.23 4.95,31.94 14.86,44.1 12.55,15.72 43.08,31.94 91.57,48.84 48.49,16.73 84.31,34.31 107.47,52.22 23.26,18.08 41.46,42.58 54.6,73.85 13.13,31.26 19.69,69.79 19.69,115.58 0,41.58 -7.83,80.61 -23.61,116.94 -15.78,36.34 -38.01,63.38 -66.81,80.95 -28.8,17.74 -64.73,26.53 -107.7,26.53 -62.55,0 -110.58,-21.12 -144.1,-63.54 -33.52,-42.25 -53.45,-103.93 -60.01,-184.87z"/>
  <polygon id="12" class="fil4" points="21467.72,12713.89 21467.72,12110.6 21321.21,12110.6 21321.21,11987.92 21713.76,11987.92 21713.76,12110.6 21567.94,12110.6 21567.94,12713.89 "/>
  <polygon id="13" class="fil4" points="21775.16,12713.89 21775.16,11987.92 21875.37,11987.92 21875.37,12713.89 "/>
  <path id="14" class="fil4" d="M21949.9 12355.3c0,-74.02 7.6,-136.21 22.69,-186.57 11.17,-37 26.61,-70.3 46.08,-99.7 19.46,-29.4 40.77,-51.2 63.92,-65.57 30.87,-19.09 66.46,-28.72 106.78,-28.72 73.03,0 131.31,33.29 175.2,99.7 43.77,66.58 65.66,159.02 65.66,277.48 0,117.44 -21.77,209.37 -65.2,275.62 -43.43,66.41 -101.59,99.53 -174.28,99.53 -73.6,0 -132.24,-32.95 -175.66,-99.03 -43.42,-65.9 -65.19,-156.82 -65.19,-272.74zm102.97 -4.9c0,82.29 13.02,144.65 38.93,187.24 25.92,42.41 58.87,63.7 98.72,63.7 39.97,0 72.69,-21.12 98.37,-63.2 25.58,-42.24 38.36,-105.45 38.36,-189.77 0,-83.31 -12.44,-145.5 -37.44,-186.4 -24.88,-41.06 -57.94,-61.51 -99.29,-61.51 -41.23,0 -74.52,20.79 -99.75,62.19 -25.23,41.57 -37.9,104.1 -37.9,187.75z"/>
  <polygon id="15" class="fil4" points="22508.21,12713.89 22508.21,11987.92 22605.2,11987.92 22808.85,12474.43 22808.85,11987.92 22901.46,11987.92 22901.46,12713.89 22801.36,12713.89 22600.82,12236.67 22600.82,12713.89 "/>
  <path id="16" class="fil4" d="M23619.43 12713.89l-107.93 0 -42.73 -165.27 -198.47 0 -41.13 165.27 -105.97 0 192.13 -725.97 105.86 0 198.24 725.97zm-183.15 -287.96l-68.77 -268.69 -66.81 268.69 135.58 0z"/>
  <path id="17" class="fil4" d="M23989.3 12446.21l96.76 43.6c-14.86,79.93 -39.62,139.25 -74.18,178.12 -34.56,38.69 -78.33,58.13 -131.43,58.13 -65.78,0 -119.8,-32.96 -162.18,-98.86 -42.28,-65.91 -63.48,-155.98 -63.48,-270.38 0,-120.83 21.32,-214.79 63.82,-281.71 42.5,-66.92 98.48,-100.37 167.83,-100.37 60.59,0 109.77,26.36 147.55,78.91 22.58,31.1 39.4,75.71 50.69,134.01l-98.83 34.47c-5.88,-37.51 -18.09,-67.25 -36.63,-89.05 -18.67,-21.8 -41.24,-32.62 -67.74,-32.62 -36.74,0 -66.57,19.27 -89.38,57.97 -22.92,38.52 -34.33,101.05 -34.33,187.57 0,91.59 11.29,156.99 33.75,195.86 22.58,39.04 51.84,58.47 87.89,58.47 26.61,0 49.53,-12.34 68.65,-37.18 19.12,-24.84 32.95,-63.71 41.24,-116.94z"/>
  <path id="18" class="fil4" d="M24617.65 12713.89l-107.93 0 -42.73 -165.27 -198.47 0 -41.12 165.27 -105.98 0 192.13 -725.97 105.86 0 198.24 725.97zm-183.15 -287.96l-68.77 -268.69 -66.8 268.69 135.57 0z"/>
  <path id="19" class="fil4" d="M24670.99 11987.92l182.23 0c41.12,0 72.45,4.56 93.99,13.85 28.91,12.51 53.79,34.81 74.41,66.92 20.73,31.94 36.4,71.15 47.22,117.62 10.72,46.3 16.13,103.59 16.13,171.52 0,59.82 -5.06,111.2 -15.21,154.46 -12.32,52.89 -29.94,95.64 -52.86,128.26 -17.28,24.84 -40.66,44.11 -70.04,57.96 -22,10.31 -51.37,15.38 -88.23,15.38l-187.64 0 0 -725.97zm100.21 122.68l0 480.6 74.29 0c27.77,0 47.81,-2.36 60.14,-6.92 16.23,-5.92 29.6,-16.06 40.19,-30.25 10.72,-14.2 19.35,-37.52 26.03,-69.96 6.8,-32.45 10.15,-76.89 10.15,-133 0,-56.1 -3.35,-99.03 -10.15,-129.11 -6.68,-30.07 -16.12,-53.4 -28.22,-70.29 -12.09,-16.73 -27.41,-28.23 -46.07,-34.14 -13.82,-4.56 -41.12,-6.93 -81.67,-6.93l-44.69 0z"/>
  <polygon id="20" class="fil4" points="25170.1,12713.89 25170.1,11987.92 25536.39,11987.92 25536.39,12110.6 25270.31,12110.6 25270.31,12271.82 25517.73,12271.82 25517.73,12394.5 25270.31,12394.5 25270.31,12591.2 25546.07,12591.2 25546.07,12713.89 "/>
  <polygon id="21" class="fil4" points="25629.7,12713.89 25629.7,11987.92 25779.78,11987.92 25868.48,12483.05 25956.14,11987.92 26106.57,11987.92 26106.57,12713.89 26013.96,12713.89 26013.62,12142.37 25916.05,12713.89 25819.75,12713.89 25722.65,12142.37 25722.31,12713.89 "/>
  <polygon id="22" class="fil4" points="26203.33,12713.89 26203.33,11987.92 26303.54,11987.92 26303.54,12713.89 "/>
  <path id="23" class="fil4" d="M26715.34 12446.21l96.75 43.6c-14.86,79.93 -39.62,139.25 -74.18,178.12 -34.56,38.69 -78.32,58.13 -131.43,58.13 -65.77,0 -119.8,-32.96 -162.18,-98.86 -42.28,-65.91 -63.47,-155.98 -63.47,-270.38 0,-120.83 21.31,-214.79 63.81,-281.71 42.51,-66.92 98.49,-100.37 167.83,-100.37 60.59,0 109.78,26.36 147.55,78.91 22.59,31.1 39.4,75.71 50.69,134.01l-98.83 34.47c-5.88,-37.51 -18.08,-67.25 -36.63,-89.05 -18.66,-21.8 -41.24,-32.62 -67.73,-32.62 -36.74,0 -66.58,19.27 -89.39,57.97 -22.92,38.52 -34.32,101.05 -34.32,187.57 0,91.59 11.28,156.99 33.74,195.86 22.59,39.04 51.84,58.47 87.89,58.47 26.61,0 49.54,-12.34 68.66,-37.18 19.12,-24.84 32.94,-63.71 41.24,-116.94z"/>
  <path id="24" class="fil4" d="M27343.68 12713.89l-107.93 0 -42.73 -165.27 -198.47 0 -41.12 165.27 -105.97 0 192.13 -725.97 105.86 0 198.23 725.97zm-183.14 -287.96l-68.77 -268.69 -66.81 268.69 135.58 0z"/>
  <rect class="fil5" x="12703.28" y="9636.55" width="1972.25" height="448.25"/>
 </g>
</svg>
