<?xml version="1.0" encoding="UTF-8"?>
<!DOCTYPE svg PUBLIC "-//W3C//DTD SVG 1.1//EN" "http://www.w3.org/Graphics/SVG/1.1/DTD/svg11.dtd">
<!-- Creator: CorelDRAW 2018 (64 Bit) -->
<svg xmlns="http://www.w3.org/2000/svg" xml:space="preserve" width="279.4mm" height="215.9mm" version="1.1" style="shape-rendering:geometricPrecision; text-rendering:geometricPrecision; image-rendering:optimizeQuality; fill-rule:evenodd; clip-rule:evenodd"
viewBox="0 0 27940 21590"
 xmlns:xlink="http://www.w3.org/1999/xlink">
 <defs>
  <style type="text/css">
   <![CDATA[
    .str0 {stroke:#373435;stroke-width:20;stroke-miterlimit:22.9256}
    .fil0 {fill:none}
    .fil2 {fill:#4B4B4D}
    .fil1 {fill:#21C621}
    .fil3 {fill:#FEFEFE;fill-rule:nonzero}
   ]]>
  </style>
 </defs>
 <g id="Capa_x0020_1">
  <metadata id="CorelCorpID_0Corel-Layer"/>
  <rect class="fil0 str0" x="4113.03" y="931.79" width="21505.96" height="19531.2"/>
  <rect class="fil1" x="5093.9" y="1912.27" width="19667.06" height="13627.01"/>
  <rect class="fil2" x="5072.1" y="16434.37" width="19667.06" height="3020.87"/>
  <path class="fil3" d="M5808.04 18113.09l149.47 -18.7c9,62.99 27.03,109.07 54.41,138.68 27.38,29.6 64.3,44.29 110.77,44.29 49.11,0 86.21,-13.13 111.12,-39.4 24.91,-26.26 37.45,-56.98 37.45,-92.15 0,-22.71 -5.3,-41.85 -15.72,-57.88 -10.43,-15.8 -28.79,-29.6 -54.94,-41.18 -17.84,-8.01 -58.48,-21.81 -122.08,-41.84 -81.79,-25.82 -139.21,-57.43 -172.24,-95.05 -46.47,-52.76 -69.61,-117.09 -69.61,-192.99 0,-48.75 10.95,-94.6 32.68,-137.12 21.91,-42.52 53.35,-74.79 94.51,-97.05 41.17,-22.26 90.63,-33.39 148.93,-33.39 94.87,0 166.43,26.49 214.3,79.69 48.05,53.2 73.14,123.98 75.61,212.8l-153.7 6.68c-6.53,-49.42 -20.49,-84.81 -41.86,-106.4 -21.38,-21.59 -53.54,-32.5 -96.29,-32.5 -44.17,0 -78.79,11.57 -103.7,34.72 -16.08,14.92 -24.21,34.73 -24.21,59.66 0,22.7 7.61,42.07 22.8,58.1 19.25,20.7 66.07,42.07 140.44,64.33 74.38,22.03 129.32,45.18 164.83,68.78 35.69,23.81 63.61,56.09 83.74,97.27 20.14,41.18 30.22,91.93 30.22,152.26 0,54.75 -12.02,106.17 -36.23,154.03 -24.2,47.86 -58.29,83.48 -102.46,106.62 -44.17,23.38 -99.29,34.95 -165.18,34.95 -95.93,0 -169.6,-27.82 -221.01,-83.69 -51.41,-55.65 -81.97,-136.9 -92.05,-243.52z"/>
  <polygon id="1" class="fil3" points="6550.05,18422.94 6550.05,17466.67 6703.75,17466.67 6703.75,18422.94 "/>
  <path id="2" class="fil3" d="M6809.57 18113.09l149.46 -18.7c9.01,62.99 27.03,109.07 54.41,138.68 27.38,29.6 64.3,44.29 110.77,44.29 49.12,0 86.21,-13.13 111.12,-39.4 24.91,-26.26 37.46,-56.98 37.46,-92.15 0,-22.71 -5.3,-41.85 -15.73,-57.88 -10.42,-15.8 -28.79,-29.6 -54.94,-41.18 -17.84,-8.01 -58.48,-21.81 -122.07,-41.84 -81.8,-25.82 -139.22,-57.43 -172.25,-95.05 -46.46,-52.76 -69.61,-117.09 -69.61,-192.99 0,-48.75 10.96,-94.6 32.69,-137.12 21.9,-42.52 53.35,-74.79 94.51,-97.05 41.16,-22.26 90.62,-33.39 148.93,-33.39 94.86,0 166.42,26.49 214.29,79.69 48.05,53.2 73.14,123.98 75.62,212.8l-153.7 6.68c-6.54,-49.42 -20.5,-84.81 -41.87,-106.4 -21.38,-21.59 -53.53,-32.5 -96.29,-32.5 -44.17,0 -78.78,11.57 -103.7,34.72 -16.08,14.92 -24.2,34.73 -24.2,59.66 0,22.7 7.6,42.07 22.79,58.1 19.25,20.7 66.07,42.07 140.45,64.33 74.37,22.03 129.32,45.18 164.82,68.78 35.69,23.81 63.61,56.09 83.74,97.27 20.15,41.18 30.22,91.93 30.22,152.26 0,54.75 -12.02,106.17 -36.22,154.03 -24.2,47.86 -58.3,83.48 -102.47,106.62 -44.16,23.38 -99.28,34.95 -165.18,34.95 -95.93,0 -169.6,-27.82 -221,-83.69 -51.42,-55.65 -81.98,-136.9 -92.05,-243.52z"/>
  <polygon id="3" class="fil3" points="7727.52,18422.94 7727.52,17628.28 7502.81,17628.28 7502.81,17466.67 8104.89,17466.67 8104.89,17628.28 7881.22,17628.28 7881.22,18422.94 "/>
  <polygon id="4" class="fil3" points="8204.35,18422.94 8204.35,17466.67 8766.14,17466.67 8766.14,17628.28 8358.04,17628.28 8358.04,17840.63 8737.52,17840.63 8737.52,18002.24 8358.04,18002.24 8358.04,18261.34 8780.98,18261.34 8780.98,18422.94 "/>
  <polygon id="5" class="fil3" points="8909.25,18422.94 8909.25,17466.67 9139.44,17466.67 9275.47,18118.88 9409.91,17466.67 9640.64,17466.67 9640.64,18422.94 9498.6,18422.94 9498.07,17670.12 9348.44,18422.94 9200.74,18422.94 9051.81,17670.12 9051.28,18422.94 "/>
  <path id="6" class="fil3" d="M10478.03 18422.94l-165.53 0 -65.55 -217.7 -304.39 0 -63.07 217.7 -162.53 0 294.68 -956.27 162.35 0 304.04 956.27zm-280.9 -379.3l-105.47 -353.93 -102.46 353.93 207.93 0z"/>
  <path id="7" class="fil3" d="M10814.94 17466.67l279.48 0c63.08,0 111.12,6.01 144.16,18.25 44.35,16.48 82.5,45.86 114.13,88.15 31.8,42.07 55.83,93.71 72.43,154.93 16.43,60.99 24.73,136.45 24.73,225.93 0,78.8 -7.77,146.47 -23.32,203.45 -18.9,69.68 -45.92,125.99 -81.08,168.95 -26.5,32.73 -62.37,58.1 -107.42,76.35 -33.74,13.58 -78.79,20.26 -135.33,20.26l-287.78 0 0 -956.27zm153.7 161.61l0 633.06 113.95 0c42.57,0 73.31,-3.12 92.21,-9.13 24.92,-7.79 45.41,-21.15 61.66,-39.84 16.43,-18.7 29.68,-49.42 39.93,-92.16 10.42,-42.74 15.54,-101.28 15.54,-175.18 0,-73.9 -5.12,-130.44 -15.54,-170.06 -10.25,-39.63 -24.73,-70.34 -43.28,-92.6 -18.55,-22.04 -42.05,-37.18 -70.67,-44.97 -21.2,-6.01 -63.07,-9.12 -125.26,-9.12l-68.54 0z"/>
  <polygon id="8" class="fil3" points="11580.43,18422.94 11580.43,17466.67 12142.22,17466.67 12142.22,17628.28 11734.12,17628.28 11734.12,17840.63 12113.6,17840.63 12113.6,18002.24 11734.12,18002.24 11734.12,18261.34 12157.07,18261.34 12157.07,18422.94 "/>
  <path id="9" class="fil3" d="M12934.93 18071.69l0 -161.61 329.65 0 0 381.53c-31.98,39.4 -78.44,73.9 -139.38,103.95 -60.78,29.83 -122.43,44.74 -184.97,44.74 -79.33,0 -148.4,-20.92 -207.41,-62.99 -58.83,-42.07 -103.17,-102.4 -132.85,-180.53 -29.68,-78.13 -44.52,-163.38 -44.52,-255.31 0,-99.73 16.61,-188.32 49.65,-266 33.2,-77.47 81.62,-137.12 145.39,-178.53 48.76,-31.83 109.18,-47.63 181.61,-47.63 94.16,0 167.84,24.93 220.83,74.79 52.83,50.09 86.92,118.87 102.11,207.01l-152.64 36.07c-10.59,-46.97 -30.73,-84.15 -60.23,-111.52 -29.33,-27.16 -66.08,-40.74 -110.24,-40.74 -66.78,0 -119.96,26.71 -159.36,80.36 -39.39,53.64 -59.18,133.11 -59.18,238.4 0,113.74 19.96,199 59.89,255.76 40.1,56.76 92.39,85.25 157.23,85.25 31.98,0 64.13,-8.01 96.28,-23.82 32.34,-15.8 59.89,-35.17 83.04,-57.87l0 -121.31 -174.9 0z"/>
  <polygon id="10" class="fil3" points="13406.45,18422.94 13406.45,17466.67 13968.24,17466.67 13968.24,17628.28 13560.14,17628.28 13560.14,17840.63 13939.62,17840.63 13939.62,18002.24 13560.14,18002.24 13560.14,18261.34 13983.08,18261.34 13983.08,18422.94 "/>
  <path id="11" class="fil3" d="M14073.18 18113.09l149.46 -18.7c9.01,62.99 27.04,109.07 54.42,138.68 27.38,29.6 64.3,44.29 110.77,44.29 49.11,0 86.21,-13.13 111.12,-39.4 24.9,-26.26 37.45,-56.98 37.45,-92.15 0,-22.71 -5.3,-41.85 -15.72,-57.88 -10.43,-15.8 -28.79,-29.6 -54.95,-41.18 -17.84,-8.01 -58.47,-21.81 -122.07,-41.84 -81.79,-25.82 -139.22,-57.43 -172.25,-95.05 -46.46,-52.76 -69.6,-117.09 -69.6,-192.99 0,-48.75 10.95,-94.6 32.68,-137.12 21.91,-42.52 53.35,-74.79 94.51,-97.05 41.17,-22.26 90.63,-33.39 148.93,-33.39 94.87,0 166.42,26.49 214.3,79.69 48.05,53.2 73.13,123.98 75.61,212.8l-153.7 6.68c-6.53,-49.42 -20.49,-84.81 -41.87,-106.4 -21.38,-21.59 -53.53,-32.5 -96.28,-32.5 -44.17,0 -78.79,11.57 -103.7,34.72 -16.08,14.92 -24.21,34.73 -24.21,59.66 0,22.7 7.6,42.07 22.79,58.1 19.26,20.7 66.08,42.07 140.45,64.33 74.37,22.03 129.32,45.18 164.83,68.78 35.69,23.81 63.6,56.09 83.74,97.27 20.14,41.18 30.21,91.93 30.21,152.26 0,54.75 -12.01,106.17 -36.22,154.03 -24.2,47.86 -58.29,83.48 -102.46,106.62 -44.17,23.38 -99.29,34.95 -165.19,34.95 -95.93,0 -169.59,-27.82 -221,-83.69 -51.41,-55.65 -81.98,-136.9 -92.05,-243.52z"/>
  <polygon id="12" class="fil3" points="14991.14,18422.94 14991.14,17628.28 14766.42,17628.28 14766.42,17466.67 15368.5,17466.67 15368.5,17628.28 15144.84,17628.28 15144.84,18422.94 "/>
  <polygon id="13" class="fil3" points="15462.66,18422.94 15462.66,17466.67 15616.36,17466.67 15616.36,18422.94 "/>
  <path id="14" class="fil3" d="M15730.67 17950.59c0,-97.49 11.65,-179.41 34.8,-245.74 17.13,-48.75 40.81,-92.6 70.67,-131.33 29.85,-38.73 62.54,-67.45 98.04,-86.37 47.35,-25.15 101.94,-37.84 163.77,-37.84 112.01,0 201.4,43.85 268.71,131.33 67.13,87.7 100.7,209.46 100.7,365.5 0,154.71 -33.39,275.8 -99.99,363.05 -66.61,87.48 -155.82,131.11 -267.29,131.11 -112.9,0 -202.82,-43.4 -269.42,-130.44 -66.61,-86.81 -99.99,-206.57 -99.99,-359.27zm157.93 -6.45c0,108.4 19.96,190.54 59.72,246.63 39.75,55.87 90.27,83.92 151.4,83.92 61.3,0 111.48,-27.82 150.87,-83.25 39.22,-55.65 58.83,-138.9 58.83,-249.97 0,-109.74 -19.08,-191.66 -57.41,-245.53 -38.16,-54.09 -88.87,-81.02 -152.29,-81.02 -63.25,0 -114.3,27.38 -153,81.92 -38.69,54.75 -58.12,137.11 -58.12,247.3zm118.72 -564.28l72.08 -194.99 162.18 0 -143.1 194.99 -91.16 0z"/>
  <polygon id="15" class="fil3" points="16586.96,18422.94 16586.96,17466.67 16735.71,17466.67 17048.06,18107.52 17048.06,17466.67 17190.1,17466.67 17190.1,18422.94 17036.57,18422.94 16729,17794.33 16729,18422.94 "/>
  <path id="16" class="fil3" d="M18291.25 18422.94l-165.53 0 -65.55 -217.7 -304.4 0 -63.06 217.7 -162.53 0 294.67 -956.27 162.36 0 304.04 956.27zm-280.9 -379.3l-105.47 -353.93 -102.46 353.93 207.93 0z"/>
  <path id="17" class="fil3" d="M18858.52 18070.35l148.4 57.43c-22.79,105.29 -60.78,183.42 -113.77,234.61 -53,50.98 -120.14,76.58 -201.58,76.58 -100.88,0 -183.73,-43.41 -248.75,-130.22 -64.83,-86.81 -97.34,-205.46 -97.34,-356.15 0,-159.16 32.68,-282.92 97.88,-371.07 65.19,-88.15 151.05,-132.22 257.4,-132.22 92.93,0 168.36,34.72 226.3,103.95 34.63,40.96 60.42,99.72 77.74,176.52l-151.58 45.41c-9.01,-49.42 -27.74,-88.59 -56.18,-117.31 -28.62,-28.71 -63.24,-42.96 -103.88,-42.96 -56.36,0 -102.11,25.38 -137.09,76.35 -35.16,50.75 -52.65,133.11 -52.65,247.08 0,120.65 17.32,206.79 51.76,257.99 34.63,51.42 79.5,77.02 134.8,77.02 40.81,0 75.97,-16.25 105.29,-48.97 29.33,-32.73 50.53,-83.92 63.25,-154.04z"/>
  <path id="18" class="fil3" d="M19822.23 18422.94l-165.54 0 -65.55 -217.7 -304.39 0 -63.07 217.7 -162.53 0 294.68 -956.27 162.35 0 304.05 956.27zm-280.91 -379.3l-105.47 -353.93 -102.46 353.93 207.93 0z"/>
  <path id="19" class="fil3" d="M19904.02 17466.67l279.48 0c63.07,0 111.12,6.01 144.16,18.25 44.34,16.48 82.5,45.86 114.13,88.15 31.79,42.07 55.83,93.71 72.43,154.93 16.43,60.99 24.73,136.45 24.73,225.93 0,78.8 -7.77,146.47 -23.32,203.45 -18.9,69.68 -45.93,125.99 -81.09,168.95 -26.5,32.73 -62.36,58.1 -107.41,76.35 -33.74,13.58 -78.8,20.26 -135.33,20.26l-287.78 0 0 -956.27zm153.69 161.61l0 633.06 113.96 0c42.57,0 73.31,-3.12 92.21,-9.13 24.92,-7.79 45.41,-21.15 61.66,-39.84 16.43,-18.7 29.68,-49.42 39.92,-92.16 10.43,-42.74 15.55,-101.28 15.55,-175.18 0,-73.9 -5.12,-130.44 -15.55,-170.06 -10.24,-39.63 -24.73,-70.34 -43.27,-92.6 -18.55,-22.04 -42.05,-37.18 -70.67,-44.97 -21.2,-6.01 -63.07,-9.12 -125.26,-9.12l-68.55 0z"/>
  <path id="20" class="fil3" d="M20669.51 18422.94l0 -956.27 561.79 0 0 161.61 -408.1 0 0 212.35 379.48 0 0 161.61 -379.48 0 0 259.1 422.94 0 0 161.6 -576.63 0zm208.81 -1043.08l72.08 -194.99 162.18 0 -143.1 194.99 -91.16 0z"/>
  <polygon id="21" class="fil3" points="21374.41,18422.94 21374.41,17466.67 21604.6,17466.67 21740.63,18118.88 21875.07,17466.67 22105.8,17466.67 22105.8,18422.94 21963.76,18422.94 21963.23,17670.12 21813.6,18422.94 21665.9,18422.94 21516.97,17670.12 21516.44,18422.94 "/>
  <polygon id="22" class="fil3" points="22254.2,18422.94 22254.2,17466.67 22407.9,17466.67 22407.9,18422.94 "/>
  <path id="23" class="fil3" d="M23039.48 18070.35l148.4 57.43c-22.8,105.29 -60.78,183.42 -113.77,234.61 -53,50.98 -120.14,76.58 -201.58,76.58 -100.88,0 -183.73,-43.41 -248.75,-130.22 -64.83,-86.81 -97.34,-205.46 -97.34,-356.15 0,-159.16 32.68,-282.92 97.87,-371.07 65.2,-88.15 151.05,-132.22 257.4,-132.22 92.93,0 168.36,34.72 226.31,103.95 34.63,40.96 60.42,99.72 77.74,176.52l-151.58 45.41c-9.01,-49.42 -27.74,-88.59 -56.19,-117.31 -28.62,-28.71 -63.24,-42.96 -103.87,-42.96 -56.36,0 -102.11,25.38 -137.09,76.35 -35.16,50.75 -52.65,133.11 -52.65,247.08 0,120.65 17.32,206.79 51.76,257.99 34.63,51.42 79.5,77.02 134.8,77.02 40.81,0 75.97,-16.25 105.29,-48.97 29.33,-32.73 50.53,-83.92 63.25,-154.04z"/>
  <path id="24" class="fil3" d="M24003.18 18422.94l-165.53 0 -65.55 -217.7 -304.39 0 -63.07 217.7 -162.53 0 294.68 -956.27 162.35 0 304.04 956.27zm-280.9 -379.3l-105.47 -353.93 -102.46 353.93 207.93 0z"/>
  <path class="fil3" d="M10617.75 13916.09c-1741.46,-397.83 -3084.69,-686.08 -4026.87,-863.5 -621.04,-116.94 -1136.29,-193.73 -1496.97,-233.79l0 1717.04c581.41,176.36 1299.3,268.42 2132.21,268.42 711.92,0 1350.81,-74.01 1909.39,-222.04 558.57,-148.03 1051.44,-370.07 1482.24,-666.13zm2216.06 373.16c-567.27,516.23 -1209.48,931.58 -1930.39,1246.02l-5809.51 4.02 0 -4114.25c895.07,84.32 2399.88,366.96 4483.35,847.32 894.53,206.24 1588.12,363.9 2088.28,478.01 240.95,-274.47 434.45,-585.95 576.83,-928.27 142.39,-342.31 215.41,-669.21 215.41,-974.52 0,-487.26 -146.04,-903.59 -438.1,-1242.82 -292.08,-339.23 -978.44,-770.98 -2055.44,-1295.25 -1255.88,-601.36 -2110.18,-1159.55 -2555.57,-1668.4 -445.41,-508.85 -668.11,-1131.8 -668.11,-1865.78 0,-1137.59 454.42,-2089.18 1370.46,-2863.05l8691.21 0c109.69,213.02 167.98,450.06 167.98,695.05 0,351.57 -116.83,626.04 -350.48,829.58 -237.3,200.45 -554.92,302.22 -960.17,302.22l-149.68 0c-80.32,-592.11 -354.13,-1033.11 -821.44,-1323 -467.31,-289.89 -1135.42,-434.84 -2004.31,-434.84 -1058.75,0 -1913.05,215.88 -2570.19,650.71 -657.16,434.84 -985.73,996.11 -985.73,1683.83 0,789.48 733.81,1523.46 2205.11,2205 193.48,89.44 332.22,157.28 419.84,200.46 1098.9,521.18 1898.44,1091.71 2402.25,1705.41 503.82,613.7 755.72,1319.92 755.72,2118.66 0,478.01 -83.97,925.18 -251.9,1344.59 -167.94,422.5 -427.15,826.49 -777.63,1211.98 208.1,46.26 427.15,89.44 660.81,129.53 230,37.01 485.56,74.01 763.02,111.02l-416.2 1221.23c-449.05,-30.83 -836.04,-67.84 -1160.97,-114.1 -324.92,-46.26 -624.29,-98.69 -894.45,-160.36z"/>
  <path class="fil3" d="M20029.93 11930.86l0 -1157.25 3677.25 0 0 2732.13c-356.69,282.14 -874.97,529.21 -1554.85,744.41 -677.91,213.59 -1365.67,320.39 -2063.28,320.39 -884.82,0 -1655.35,-149.83 -2313.55,-451.1 -656.22,-301.27 -1150.86,-733.25 -1481.93,-1292.75 -331.07,-559.49 -496.6,-1170 -496.6,-1828.33 0,-714.11 185.23,-1348.53 553.74,-1904.84 370.49,-554.72 910.46,-981.91 1621.85,-1278.4 543.91,-227.94 1217.87,-341.12 2025.84,-341.12 1050.37,0 1872.13,178.53 2463.32,535.59 589.23,358.65 969.57,851.2 1139.04,1482.43l-1702.64 258.23c-118.25,-336.33 -342.9,-602.53 -672,-798.6 -327.13,-194.47 -737.02,-291.7 -1229.69,-291.7 -744.9,0 -1338.07,191.28 -1777.53,575.44 -439.46,384.15 -660.17,953.21 -660.17,1707.18 0,814.54 222.69,1425.05 668.05,1831.52 447.34,406.47 1030.66,610.51 1753.88,610.51 356.7,0 715.36,-57.39 1074.02,-170.56 360.62,-113.18 668.05,-251.85 926.2,-414.44l0 -868.74 -1950.95 0z"/>
 </g>
</svg>
