<?xml version="1.0" encoding="UTF-8"?>
<!DOCTYPE svg PUBLIC "-//W3C//DTD SVG 1.1//EN" "http://www.w3.org/Graphics/SVG/1.1/DTD/svg11.dtd">
<!-- Creator: CorelDRAW 2018 (64 Bit) -->
<svg xmlns="http://www.w3.org/2000/svg" xml:space="preserve" width="279.4mm" height="215.9mm" version="1.1" style="shape-rendering:geometricPrecision; text-rendering:geometricPrecision; image-rendering:optimizeQuality; fill-rule:evenodd; clip-rule:evenodd"
viewBox="0 0 27940 21590"
 xmlns:xlink="http://www.w3.org/1999/xlink">
 <defs>
  <style type="text/css">
   <![CDATA[
    .fil3 {fill:#FEFEFE}
    .fil0 {fill:#F58634}
    .fil1 {fill:#21C621}
    .fil2 {fill:#FEFEFE;fill-rule:nonzero}
   ]]>
  </style>
 </defs>
 <g id="Capa_x0020_1">
  <metadata id="CorelCorpID_0Corel-Layer"/>
  <path class="fil0" d="M6605 9536.5l2620.73 -2620.74 2167.47 2167.47c-463.14,-7.86 -888.32,155.42 -942.48,698.85 -45.91,460.6 -55.28,1933.86 37.46,2224.22l-1262.45 1262.45 -1705.16 -1705.16c22.45,-121.57 33.68,-247.06 33.68,-376.68 0,-439.37 -138.57,-827.85 -415.72,-1165.43 -137.63,-167.66 -315.41,-329.46 -533.53,-484.98zm5567.86 326.4l229.36 229.36 -619.82 619.82 -1.7 -744.42c-0.09,-41.84 31.83,-94.78 392.16,-104.76zm-2645.02 2496.03l-665.46 0 0 -3160.93 665.46 0 0 3160.93zm-623.87 -3790.74c-83.18,-83.18 -124.77,-182.21 -124.77,-297.08 0,-114.87 41.59,-213.9 124.77,-297.08 83.18,-83.18 182.21,-124.77 297.08,-124.77 114.87,0 213.9,41.59 297.08,124.77 83.18,83.18 124.77,182.21 124.77,297.08 0,114.87 -41.59,213.9 -124.77,297.08 -83.18,83.18 -182.21,124.77 -297.08,124.77 -114.87,0 -213.9,-41.59 -297.08,-124.77z"/>
  <path class="fil1" d="M9124.28 5982.63c2994.62,0 5539.01,1423.76 6462.26,3405.23 -124.06,84.93 -206.27,196.82 -246.58,335.67 -15.57,51.9 -23.35,98.04 -23.35,138.42l0 1790.77c0,232.29 128.82,402.18 386.3,509.72 -1051.97,2309.8 -5291.46,4175.63 -11264.33,3816.32 3519.24,-388.82 7467.02,-1869.06 8834.64,-3639.82 209.74,-3.45 1217.8,93.53 1346.69,-740.38 0,-431.92 0.1,-797.94 0.1,-1229.88l-558.64 -1.47c-10.26,-151.45 -35.7,-343.97 -67.01,-489.19l252.42 -1.56 13.26 -814.02 -551.53 -5.99c-815.48,-1405.51 -2717.85,-2570.03 -4584.23,-3073.82z"/>
  <path class="fil2" d="M19560.42 9807.5c0,-51.91 10.39,-103.82 31.15,-155.72 140.14,-305.67 511.27,-458.51 1113.38,-458.51l2452.56 0 0 666.13 -2125.55 8.66c-176.48,5.76 -264.72,54.79 -264.72,147.06l0 207.63c0,23.07 2.59,37.49 7.78,43.26 25.96,80.74 127.17,126.88 303.65,138.41 15.58,0 41.53,0 77.86,0l872.03 0c259.52,0 487.91,37.49 685.15,112.47 295.87,103.81 443.8,271.06 443.8,501.76l0 631.53c0,248 -153.12,429.67 -459.37,545.02 -207.62,74.97 -456.77,112.46 -747.45,112.46l-2382.49 0 0 -674.78 2102.21 0c186.85,-34.61 280.28,-95.17 280.28,-181.68l0 -224.92c0,-86.52 -85.64,-135.54 -256.93,-147.07l-1004.38 0c-404.87,0 -718.9,-92.28 -942.1,-276.84 -124.57,-103.81 -186.86,-216.27 -186.86,-337.39l0 -657.48z"/>
  <polygon id="1" class="fil2" points="23554.6,9859.4 23554.6,9193.27 27167.26,9193.27 27167.26,9859.4 25960.45,9859.4 25960.45,12307.66 24753.63,12307.66 24753.63,9859.4 "/>
  <path class="fil2" d="M15391.82 11616.69l0 -1731.78c0,-39.05 7.52,-83.67 22.58,-133.86 100.4,-345.81 469.34,-518.71 1106.83,-518.71l2409.43 0 0 644.19 -2100.72 0c-15.06,5.58 -40.15,11.16 -75.29,16.74 -130.52,27.88 -195.76,86.45 -195.76,175.69l0 334.64 2371.77 0 0 652.56 -2371.77 0 0 334.64c0,122.7 100.39,189.63 301.17,200.79l2070.6 0 0 652.56 -2243.77 0c-863.37,0 -1295.07,-209.16 -1295.07,-627.46z"/>
  <path class="fil3" d="M13252.08 12245.93c10.48,-9.83 -1545.44,41.94 -1926.82,-36.13 -6.63,-1.36 -558.48,-42.18 -762.63,-407.48 -96.22,-172.16 -88.87,-1606.47 -45.49,-2041.71 52.3,-524.69 636.57,-603.36 941.25,-606.11l2709.99 -24.5 0 670.28 -2059.55 4.65c-386.94,0.87 -387.94,83.56 -387.85,123.66l3.45 1511.05c0.27,117.62 151.75,128.13 794.41,132.85 405.09,2.98 803.41,-2.27 802.28,-141.94l-4.3 -525.54 -822.45 0 0 -448.24 2035.63 0c0,372.08 0,744.15 0,1116.23 -86.42,672.93 -962.2,672.93 -1277.92,672.93z"/>
  <path class="fil2" d="M5055.96 13076.93c-957.93,-218.83 -1696.97,-376.6 -2215.09,-474.99 -520.14,-96.7 -873.6,-145.89 -1062.37,-145.89 -184.76,0 -315.3,25.44 -391.61,74.64 -76.31,49.2 -114.48,132.32 -114.48,249.37 0,225.62 176.74,412.23 532.19,561.51 355.47,149.29 817.36,223.93 1385.7,223.93 391.61,0 743.05,-40.71 1050.31,-122.14 307.27,-81.43 578.39,-203.57 815.35,-366.43zm1219.02 205.27c-389.6,354.55 -843.47,622.58 -1365.61,804.1 -522.15,181.51 -1094.5,273.12 -1719.07,273.12 -913.75,0 -1640.74,-145.89 -2180.96,-437.68 -540.23,-290.08 -809.34,-675.17 -809.34,-1151.86 0,-357.94 128.53,-625.97 387.6,-805.79 259.07,-181.51 648.67,-271.42 1166.8,-271.42 427.76,0 1337.5,159.46 2729.22,480.08 492.02,113.66 873.59,200.17 1148.71,262.94 132.56,-150.98 239,-322.32 317.32,-510.62 78.32,-188.3 118.48,-368.12 118.48,-536.06 0,-268.03 -80.33,-497.05 -241,-683.65 -160.65,-186.61 -538.2,-424.1 -1130.64,-712.49 -690.84,-330.8 -1160.78,-637.85 -1405.78,-917.76 -245.01,-279.91 -367.51,-622.58 -367.51,-1026.33 0,-705.7 321.33,-1284.18 961.96,-1735.42 642.64,-451.24 1466.03,-676.87 2470.15,-676.87 642.64,0 1170.82,115.36 1580.49,346.07 409.69,230.71 614.53,522.49 614.53,873.65 0,193.39 -64.26,344.37 -192.79,456.33 -130.54,110.27 -305.26,166.25 -528.17,166.25l-82.34 0c-44.18,-325.71 -194.8,-568.29 -451.85,-727.76 -257.06,-159.46 -624.57,-239.19 -1102.54,-239.19 -582.4,0 -1052.33,118.75 -1413.81,357.94 -361.48,239.19 -542.23,547.94 -542.23,926.24 0,434.28 403.66,838.02 1212.99,1212.93 106.43,49.2 182.74,86.52 230.95,110.27 604.49,286.69 1044.29,600.52 1321.42,938.11 277.15,337.58 415.72,726.06 415.72,1165.43 0,262.94 -46.19,508.92 -138.57,739.63 -92.39,232.41 -234.97,454.64 -427.76,666.69 114.47,25.45 234.96,49.2 363.49,71.25 126.53,20.36 267.1,40.72 419.73,61.07l-228.94 671.78c-247.02,-16.96 -459.9,-37.32 -638.63,-62.77 -178.74,-25.44 -343.41,-54.28 -492.02,-88.21z"/>
  <path class="fil2" d="M16018.33 13360.61l91.87 -14.2c5.54,47.83 16.62,82.81 33.45,105.28 16.83,22.48 39.52,33.63 68.09,33.63 30.18,0 52.99,-9.97 68.3,-29.91 15.31,-19.94 23.02,-43.26 23.02,-69.96 0,-17.24 -3.25,-31.77 -9.66,-43.94 -6.41,-12 -17.7,-22.47 -33.78,-31.26 -10.96,-6.08 -35.94,-16.56 -75.03,-31.77 -50.28,-19.6 -85.57,-43.6 -105.88,-72.16 -28.56,-40.05 -42.79,-88.89 -42.79,-146.51 0,-37.01 6.73,-71.82 20.09,-104.1 13.47,-32.27 32.8,-56.78 58.1,-73.68 25.3,-16.9 55.71,-25.34 91.54,-25.34 58.32,0 102.3,20.1 131.73,60.49 29.53,40.39 44.96,94.13 46.47,161.56l-94.47 5.07c-4.02,-37.52 -12.6,-64.39 -25.74,-80.78 -13.14,-16.39 -32.9,-24.67 -59.18,-24.67 -27.15,0 -48.44,8.78 -63.74,26.36 -9.89,11.32 -14.88,26.36 -14.88,45.29 0,17.23 4.67,31.94 14.01,44.1 11.84,15.72 40.61,31.94 86.33,48.84 45.72,16.73 79.49,34.31 101.32,52.22 21.93,18.08 39.09,42.58 51.47,73.85 12.38,31.26 18.56,69.79 18.56,115.58 0,41.58 -7.38,80.61 -22.26,116.94 -14.87,36.34 -35.83,63.38 -62.98,80.95 -27.15,17.74 -61.03,26.53 -101.54,26.53 -58.96,0 -104.24,-21.12 -135.84,-63.54 -31.61,-42.25 -50.39,-103.93 -56.58,-184.87z"/>
  <polygon id="1" class="fil2" points="16474.42,13595.84 16474.42,12869.87 16568.9,12869.87 16568.9,13595.84 "/>
  <path id="2" class="fil2" d="M16633.94 13360.61l91.87 -14.2c5.54,47.83 16.62,82.81 33.45,105.28 16.83,22.48 39.53,33.63 68.09,33.63 30.18,0 52.99,-9.97 68.3,-29.91 15.32,-19.94 23.02,-43.26 23.02,-69.96 0,-17.24 -3.25,-31.77 -9.66,-43.94 -6.41,-12 -17.7,-22.47 -33.77,-31.26 -10.97,-6.08 -35.95,-16.56 -75.04,-31.77 -50.28,-19.6 -85.57,-43.6 -105.88,-72.16 -28.56,-40.05 -42.79,-88.89 -42.79,-146.51 0,-37.01 6.74,-71.82 20.1,-104.1 13.46,-32.27 32.79,-56.78 58.09,-73.68 25.3,-16.9 55.71,-25.34 91.54,-25.34 58.32,0 102.3,20.1 131.73,60.49 29.54,40.39 44.96,94.13 46.48,161.56l-94.48 5.07c-4.02,-37.52 -12.6,-64.39 -25.74,-80.78 -13.14,-16.39 -32.9,-24.67 -59.18,-24.67 -27.14,0 -48.43,8.78 -63.74,26.36 -9.88,11.32 -14.88,26.36 -14.88,45.29 0,17.23 4.67,31.94 14.01,44.1 11.84,15.72 40.61,31.94 86.33,48.84 45.72,16.73 79.49,34.31 101.32,52.22 21.93,18.08 39.09,42.58 51.47,73.85 12.38,31.26 18.57,69.79 18.57,115.58 0,41.58 -7.39,80.61 -22.26,116.94 -14.88,36.34 -35.83,63.38 -62.99,80.95 -27.15,17.74 -61.02,26.53 -101.53,26.53 -58.97,0 -104.25,-21.12 -135.85,-63.54 -31.6,-42.25 -50.39,-103.93 -56.58,-184.87z"/>
  <polygon id="3" class="fil2" points="17198.19,13595.84 17198.19,12992.55 17060.06,12992.55 17060.06,12869.87 17430.15,12869.87 17430.15,12992.55 17292.67,12992.55 17292.67,13595.84 "/>
  <polygon id="4" class="fil2" points="17491.29,13595.84 17491.29,12869.87 17836.61,12869.87 17836.61,12992.55 17585.76,12992.55 17585.76,13153.77 17819.02,13153.77 17819.02,13276.45 17585.76,13276.45 17585.76,13473.15 17845.73,13473.15 17845.73,13595.84 "/>
  <polygon id="5" class="fil2" points="17924.57,13595.84 17924.57,12869.87 18066.07,12869.87 18149.68,13365 18232.32,12869.87 18374.15,12869.87 18374.15,13595.84 18286.84,13595.84 18286.51,13024.32 18194.53,13595.84 18103.75,13595.84 18012.2,13024.32 18011.88,13595.84 "/>
  <path id="6" class="fil2" d="M18888.88 13595.84l-101.75 0 -40.29 -165.27 -187.11 0 -38.77 165.27 -99.9 0 181.13 -725.97 99.8 0 186.89 725.97zm-172.67 -287.96l-64.83 -268.69 -62.98 268.69 127.81 0z"/>
  <path id="7" class="fil2" d="M19095.96 12869.87l171.8 0c38.77,0 68.3,4.56 88.61,13.85 27.26,12.51 50.71,34.81 70.15,66.92 19.55,31.94 34.32,71.15 44.52,117.62 10.1,46.3 15.2,103.59 15.2,171.52 0,59.82 -4.77,111.2 -14.33,154.46 -11.62,52.89 -28.23,95.64 -49.84,128.26 -16.29,24.84 -38.33,44.11 -66.03,57.96 -20.74,10.31 -48.43,15.38 -83.18,15.38l-176.9 0 0 -725.97zm94.48 122.68l0 480.6 70.04 0c26.17,0 45.06,-2.36 56.69,-6.92 15.3,-5.92 27.91,-16.06 37.89,-30.25 10.1,-14.2 18.25,-37.52 24.54,-69.96 6.41,-32.45 9.57,-76.89 9.57,-133 0,-56.1 -3.16,-99.03 -9.57,-129.11 -6.29,-30.07 -15.19,-53.4 -26.6,-70.29 -11.4,-16.73 -25.85,-28.23 -43.43,-34.14 -13.04,-4.56 -38.77,-6.93 -77,-6.93l-42.13 0z"/>
  <polygon id="8" class="fil2" points="19566.5,13595.84 19566.5,12869.87 19911.82,12869.87 19911.82,12992.55 19660.98,12992.55 19660.98,13153.77 19894.23,13153.77 19894.23,13276.45 19660.98,13276.45 19660.98,13473.15 19920.94,13473.15 19920.94,13595.84 "/>
  <path id="9" class="fil2" d="M20399.08 13329.18l0 -122.69 202.64 0 0 289.65c-19.66,29.91 -48.22,56.1 -85.68,78.91 -37.36,22.65 -75.26,33.97 -113.7,33.97 -48.76,0 -91.22,-15.88 -127.49,-47.82 -36.16,-31.94 -63.42,-77.74 -81.67,-137.05 -18.24,-59.32 -27.36,-124.04 -27.36,-193.83 0,-75.71 10.21,-142.97 30.51,-201.94 20.42,-58.81 50.18,-104.1 89.38,-135.53 29.97,-24.17 67.11,-36.16 111.63,-36.16 57.88,0 103.17,18.92 135.75,56.78 32.46,38.02 53.42,90.23 62.76,157.15l-93.82 27.38c-6.52,-35.66 -18.9,-63.88 -37.03,-84.66 -18.03,-20.62 -40.62,-30.93 -67.77,-30.93 -41.04,0 -73.73,20.28 -97.94,61.01 -24.22,40.72 -36.39,101.05 -36.39,180.98 0,86.36 12.27,151.08 36.82,194.17 24.65,43.09 56.79,64.72 96.64,64.72 19.66,0 39.42,-6.08 59.19,-18.08 19.87,-12 36.81,-26.7 51.03,-43.93l0 -92.1 -107.5 0z"/>
  <polygon id="10" class="fil2" points="20688.92,13595.84 20688.92,12869.87 21034.24,12869.87 21034.24,12992.55 20783.39,12992.55 20783.39,13153.77 21016.65,13153.77 21016.65,13276.45 20783.39,13276.45 20783.39,13473.15 21043.36,13473.15 21043.36,13595.84 "/>
  <path id="11" class="fil2" d="M21098.75 13360.61l91.87 -14.2c5.53,47.83 16.61,82.81 33.44,105.28 16.83,22.48 39.53,33.63 68.09,33.63 30.19,0 52.99,-9.97 68.31,-29.91 15.31,-19.94 23.02,-43.26 23.02,-69.96 0,-17.24 -3.26,-31.77 -9.66,-43.94 -6.42,-12 -17.71,-22.47 -33.78,-31.26 -10.97,-6.08 -35.95,-16.56 -75.04,-31.77 -50.27,-19.6 -85.57,-43.6 -105.87,-72.16 -28.57,-40.05 -42.79,-88.89 -42.79,-146.51 0,-37.01 6.73,-71.82 20.09,-104.1 13.46,-32.27 32.79,-56.78 58.1,-73.68 25.3,-16.9 55.71,-25.34 91.54,-25.34 58.32,0 102.3,20.1 131.73,60.49 29.53,40.39 44.95,94.13 46.47,161.56l-94.48 5.07c-4.01,-37.52 -12.59,-64.39 -25.73,-80.78 -13.14,-16.39 -32.9,-24.67 -59.19,-24.67 -27.14,0 -48.43,8.78 -63.74,26.36 -9.88,11.32 -14.87,26.36 -14.87,45.29 0,17.23 4.66,31.94 14.01,44.1 11.83,15.72 40.61,31.94 86.32,48.84 45.73,16.73 79.49,34.31 101.32,52.22 21.94,18.08 39.09,42.58 51.48,73.85 12.37,31.26 18.56,69.79 18.56,115.58 0,41.58 -7.38,80.61 -22.26,116.94 -14.87,36.34 -35.83,63.38 -62.98,80.95 -27.15,17.74 -61.03,26.53 -101.54,26.53 -58.96,0 -104.24,-21.12 -135.85,-63.54 -31.6,-42.25 -50.38,-103.93 -56.57,-184.87z"/>
  <polygon id="12" class="fil2" points="21663,13595.84 21663,12992.55 21524.87,12992.55 21524.87,12869.87 21894.95,12869.87 21894.95,12992.55 21757.47,12992.55 21757.47,13595.84 "/>
  <polygon id="13" class="fil2" points="21952.83,13595.84 21952.83,12869.87 22047.31,12869.87 22047.31,13595.84 "/>
  <path id="14" class="fil2" d="M22117.57 13237.25c0,-74.02 7.16,-136.21 21.39,-186.57 10.53,-37 25.09,-70.3 43.44,-99.7 18.34,-29.4 38.44,-51.2 60.26,-65.57 29.11,-19.09 62.66,-28.72 100.67,-28.72 68.85,0 123.79,33.29 165.17,99.7 41.26,66.58 61.9,159.02 61.9,277.48 0,117.44 -20.53,209.37 -61.47,275.62 -40.94,66.41 -95.77,99.53 -164.3,99.53 -69.39,0 -124.67,-32.95 -165.6,-99.03 -40.94,-65.9 -61.46,-156.82 -61.46,-272.74zm97.07 -4.9c0,82.29 12.28,144.65 36.71,187.24 24.43,42.41 55.5,63.7 93.07,63.7 37.68,0 68.52,-21.12 92.73,-63.2 24.11,-42.24 36.16,-105.45 36.16,-189.77 0,-83.31 -11.72,-145.5 -35.29,-186.4 -23.45,-41.06 -54.62,-61.51 -93.6,-61.51 -38.88,0 -70.26,20.79 -94.05,62.19 -23.78,41.57 -35.73,104.1 -35.73,187.75z"/>
  <polygon id="15" class="fil2" points="22643.92,13595.84 22643.92,12869.87 22735.36,12869.87 22927.35,13356.38 22927.35,12869.87 23014.65,12869.87 23014.65,13595.84 22920.29,13595.84 22731.22,13118.62 22731.22,13595.84 "/>
  <path id="16" class="fil2" d="M23691.52 13595.84l-101.75 0 -40.29 -165.27 -187.11 0 -38.76 165.27 -99.91 0 181.13 -725.97 99.8 0 186.89 725.97zm-172.66 -287.96l-64.84 -268.69 -62.98 268.69 127.82 0z"/>
  <path id="17" class="fil2" d="M24040.22 13328.16l91.22 43.6c-14.01,79.93 -37.36,139.25 -69.94,178.12 -32.58,38.69 -73.84,58.13 -123.91,58.13 -62,0 -112.94,-32.96 -152.89,-98.86 -39.86,-65.91 -59.84,-155.98 -59.84,-270.38 0,-120.83 20.09,-214.79 60.16,-281.71 40.07,-66.92 92.85,-100.37 158.22,-100.37 57.12,0 103.49,26.36 139.11,78.91 21.29,31.1 37.14,75.71 47.78,134.01l-93.17 34.47c-5.54,-37.51 -17.05,-67.25 -34.53,-89.05 -17.6,-21.8 -38.88,-32.62 -63.86,-32.62 -34.64,0 -62.76,19.27 -84.27,57.97 -21.61,38.52 -32.36,101.05 -32.36,187.57 0,91.59 10.64,156.99 31.82,195.86 21.29,39.04 48.87,58.47 82.86,58.47 25.08,0 46.69,-12.34 64.72,-37.18 18.02,-24.84 31.06,-63.71 38.88,-116.94z"/>
  <path id="18" class="fil2" d="M24632.59 13595.84l-101.75 0 -40.28 -165.27 -187.11 0 -38.77 165.27 -99.91 0 181.14 -725.97 99.79 0 186.89 725.97zm-172.66 -287.96l-64.83 -268.69 -62.98 268.69 127.81 0z"/>
  <path id="19" class="fil2" d="M24682.88 12869.87l171.79 0c38.77,0 68.31,4.56 88.61,13.85 27.26,12.51 50.72,34.81 70.16,66.92 19.54,31.94 34.31,71.15 44.51,117.62 10.11,46.3 15.21,103.59 15.21,171.52 0,59.82 -4.78,111.2 -14.34,154.46 -11.62,52.89 -28.23,95.64 -49.84,128.26 -16.29,24.84 -38.33,44.11 -66.03,57.96 -20.73,10.31 -48.42,15.38 -83.18,15.38l-176.89 0 0 -725.97zm94.47 122.68l0 480.6 70.04 0c26.17,0 45.07,-2.36 56.69,-6.92 15.31,-5.92 27.91,-16.06 37.9,-30.25 10.1,-14.2 18.24,-37.52 24.54,-69.96 6.4,-32.45 9.56,-76.89 9.56,-133 0,-56.1 -3.16,-99.03 -9.56,-129.11 -6.3,-30.07 -15.2,-53.4 -26.61,-70.29 -11.4,-16.73 -25.84,-28.23 -43.43,-34.14 -13.03,-4.56 -38.77,-6.93 -77,-6.93l-42.13 0z"/>
  <polygon id="20" class="fil2" points="25153.41,13595.84 25153.41,12869.87 25498.74,12869.87 25498.74,12992.55 25247.89,12992.55 25247.89,13153.77 25481.14,13153.77 25481.14,13276.45 25247.89,13276.45 25247.89,13473.15 25507.86,13473.15 25507.86,13595.84 "/>
  <polygon id="21" class="fil2" points="25586.7,13595.84 25586.7,12869.87 25728.2,12869.87 25811.81,13365 25894.45,12869.87 26036.27,12869.87 26036.27,13595.84 25948.96,13595.84 25948.64,13024.32 25856.66,13595.84 25765.88,13595.84 25674.33,13024.32 25674.01,13595.84 "/>
  <polygon id="22" class="fil2" points="26127.49,13595.84 26127.49,12869.87 26221.97,12869.87 26221.97,13595.84 "/>
  <path id="23" class="fil2" d="M26610.19 13328.16l91.22 43.6c-14.01,79.93 -37.36,139.25 -69.94,178.12 -32.58,38.69 -73.84,58.13 -123.91,58.13 -62,0 -112.93,-32.96 -152.89,-98.86 -39.86,-65.91 -59.84,-155.98 -59.84,-270.38 0,-120.83 20.09,-214.79 60.16,-281.71 40.07,-66.92 92.85,-100.37 158.22,-100.37 57.12,0 103.49,26.36 139.11,78.91 21.29,31.1 37.14,75.71 47.78,134.01l-93.17 34.47c-5.54,-37.51 -17.05,-67.25 -34.53,-89.05 -17.6,-21.8 -38.88,-32.62 -63.86,-32.62 -34.64,0 -62.76,19.27 -84.26,57.97 -21.62,38.52 -32.37,101.05 -32.37,187.57 0,91.59 10.65,156.99 31.82,195.86 21.29,39.04 48.87,58.47 82.86,58.47 25.08,0 46.7,-12.34 64.72,-37.18 18.03,-24.84 31.06,-63.71 38.88,-116.94z"/>
  <path id="24" class="fil2" d="M27202.56 13595.84l-101.75 0 -40.28 -165.27 -187.11 0 -38.77 165.27 -99.9 0 181.13 -725.97 99.79 0 186.89 725.97zm-172.66 -287.96l-64.83 -268.69 -62.98 268.69 127.81 0z"/>
 </g>
</svg>
